<svg width="24.000000" height="24.000000" viewBox="0 0 24 24" fill="none" xmlns="http://www.w3.org/2000/svg" xmlns:xlink="http://www.w3.org/1999/xlink">
	<desc>
			Created with Pixso.
	</desc>
	<defs>
		<clipPath id="clip37_5211">
			<rect id="grid" rx="0.000000" width="23.000000" height="23.000000" transform="translate(0.500000 0.500000)" fill="white" fill-opacity="0"/>
		</clipPath>
	</defs>
	<rect id="grid" rx="0.000000" width="23.000000" height="23.000000" transform="translate(0.500000 0.500000)" fill="#FFFFFF" fill-opacity="0"/>
	<g clip-path="url(#clip37_5211)">
		<path id="Vector" d="M5.75 4.75L9.25 4.75C9.8 4.75 10.25 5.19 10.25 5.75L10.25 9.25C10.25 9.8 9.8 10.25 9.25 10.25L5.75 10.25C5.19 10.25 4.75 9.8 4.75 9.25L4.75 5.75C4.75 5.19 5.19 4.75 5.75 4.75Z" stroke="#111111" stroke-opacity="1.000000" stroke-width="1.500000" stroke-linejoin="round"/>
		<path id="Vector" d="M5.75 13.75L9.25 13.75C9.8 13.75 10.25 14.19 10.25 14.75L10.25 18.25C10.25 18.8 9.8 19.25 9.25 19.25L5.75 19.25C5.19 19.25 4.75 18.8 4.75 18.25L4.75 14.75C4.75 14.19 5.19 13.75 5.75 13.75Z" stroke="#111111" stroke-opacity="1.000000" stroke-width="1.500000" stroke-linejoin="round"/>
		<path id="Vector" d="M14.75 4.75L18.25 4.75C18.8 4.75 19.25 5.19 19.25 5.75L19.25 9.25C19.25 9.8 18.8 10.25 18.25 10.25L14.75 10.25C14.19 10.25 13.75 9.8 13.75 9.25L13.75 5.75C13.75 5.19 14.19 4.75 14.75 4.75Z" stroke="#111111" stroke-opacity="1.000000" stroke-width="1.500000" stroke-linejoin="round"/>
		<path id="Vector" d="M14.75 13.75L18.25 13.75C18.8 13.75 19.25 14.19 19.25 14.75L19.25 18.25C19.25 18.8 18.8 19.25 18.25 19.25L14.75 19.25C14.19 19.25 13.75 18.8 13.75 18.25L13.75 14.75C13.75 14.19 14.19 13.75 14.75 13.75Z" stroke="#111111" stroke-opacity="1.000000" stroke-width="1.500000" stroke-linejoin="round"/>
	</g>
</svg>
