<svg width="24.000000" height="24.000000" viewBox="0 0 24 24" fill="none" xmlns="http://www.w3.org/2000/svg" xmlns:xlink="http://www.w3.org/1999/xlink">
	<desc>
			Created with Pixso.
	</desc>
	<defs>
		<clipPath id="clip37_5215">
			<rect id="log-in" rx="0.000000" width="23.000000" height="23.000000" transform="translate(0.500000 0.500000)" fill="white" fill-opacity="0"/>
		</clipPath>
	</defs>
	<rect id="log-in" rx="0.000000" width="23.000000" height="23.000000" transform="translate(0.500000 0.500000)" fill="#FFFFFF" fill-opacity="0"/>
	<g clip-path="url(#clip37_5215)">
		<path id="Vector" d="M12 11.25C10.2 11.25 8.75 9.79 8.75 8C8.75 6.2 10.2 4.75 12 4.75C13.79 4.75 15.25 6.2 15.25 8C15.25 9.79 13.79 11.25 12 11.25Z" stroke="#111111" stroke-opacity="1.000000" stroke-width="1.500000" stroke-linejoin="round"/>
		<path id="Vector" d="M17.15 19.25C18.29 19.25 19.17 18.26 18.64 17.25C17.85 15.77 16.06 14 11.99 14C7.93 14 6.14 15.77 5.35 17.25C4.82 18.26 5.7 19.25 6.84 19.25L17.15 19.25Z" stroke="#111111" stroke-opacity="1.000000" stroke-width="1.500000" stroke-linejoin="round"/>
	</g>
</svg>
